<?xml version="1.0" encoding="UTF-8" standalone="no"?>
<!-- Created with Inkscape (http://www.inkscape.org/) -->

<svg
   xmlns:dc="http://purl.org/dc/elements/1.1/"
   xmlns:cc="http://creativecommons.org/ns#"
   xmlns:rdf="http://www.w3.org/1999/02/22-rdf-syntax-ns#"
   xmlns:svg="http://www.w3.org/2000/svg"
   xmlns="http://www.w3.org/2000/svg"
   xmlns:xlink="http://www.w3.org/1999/xlink"
   xmlns:sodipodi="http://sodipodi.sourceforge.net/DTD/sodipodi-0.dtd"
   xmlns:inkscape="http://www.inkscape.org/namespaces/inkscape"
   width="48"
   height="48"
   viewBox="0 0 48 48"
   id="svg2"
   version="1.1"
   inkscape:version="0.91 r13725"
   sodipodi:docname="qoin.svg">
  <defs
     id="defs4">
    <linearGradient
       inkscape:collect="always"
       id="linearGradient4274">
      <stop
         style="stop-color:#dfedff;stop-opacity:1"
         offset="0"
         id="stop4276" />
      <stop
         style="stop-color:#9fbfdd;stop-opacity:1"
         offset="1"
         id="stop4278" />
    </linearGradient>
    <linearGradient
       inkscape:collect="always"
       id="linearGradient4553">
      <stop
         style="stop-color:#ffffbf;stop-opacity:1"
         offset="0"
         id="stop4555" />
      <stop
         style="stop-color:#7f6f00;stop-opacity:1"
         offset="1"
         id="stop4557" />
    </linearGradient>
    <linearGradient
       inkscape:collect="always"
       xlink:href="#linearGradient4553"
       id="linearGradient4505"
       x1="11.5"
       y1="1028.3622"
       x2="36.5"
       y2="1028.3622"
       gradientUnits="userSpaceOnUse"
       gradientTransform="translate(-768.13244,-1738.5535)" />
    <linearGradient
       inkscape:collect="always"
       xlink:href="#linearGradient4553"
       id="linearGradient4507"
       x1="5.795115"
       y1="1021.8566"
       x2="10.792988"
       y2="1021.8566"
       gradientUnits="userSpaceOnUse"
       gradientTransform="matrix(-0.70710678,-0.70710678,0.70710678,-0.70710678,-686.19132,1772.4947)" />
    <linearGradient
       inkscape:collect="always"
       xlink:href="#linearGradient4553"
       id="linearGradient4509"
       x1="37.207012"
       y1="1034.8678"
       x2="42.204884"
       y2="1034.8678"
       gradientUnits="userSpaceOnUse"
       gradientTransform="matrix(-0.70710678,-0.70710678,0.70710678,-0.70710678,-686.19132,1772.4947)" />
    <linearGradient
       inkscape:collect="always"
       xlink:href="#linearGradient4553"
       id="linearGradient4511"
       x1="9.4823475"
       y1="1016.3414"
       x2="14.476016"
       y2="1016.3414"
       gradientUnits="userSpaceOnUse"
       gradientTransform="matrix(-0.70710678,-0.70710678,0.70710678,-0.70710678,-686.19132,1772.4947)" />
    <linearGradient
       inkscape:collect="always"
       xlink:href="#linearGradient4553"
       id="linearGradient4513"
       x1="33.523983"
       y1="1040.3831"
       x2="38.517654"
       y2="1040.3831"
       gradientUnits="userSpaceOnUse"
       gradientTransform="matrix(-0.70710678,-0.70710678,0.70710678,-0.70710678,-686.19132,1772.4947)" />
    <linearGradient
       inkscape:collect="always"
       xlink:href="#linearGradient4553"
       id="linearGradient4515"
       x1="14.995438"
       y1="1012.6563"
       x2="19.993317"
       y2="1012.6563"
       gradientUnits="userSpaceOnUse"
       gradientTransform="matrix(-0.70710678,-0.70710678,0.70710678,-0.70710678,-686.19132,1772.4947)" />
    <linearGradient
       inkscape:collect="always"
       xlink:href="#linearGradient4553"
       id="linearGradient4517"
       x1="28.006683"
       y1="1044.0681"
       x2="33.004562"
       y2="1044.0681"
       gradientUnits="userSpaceOnUse"
       gradientTransform="matrix(-0.70710678,-0.70710678,0.70710678,-0.70710678,-686.19132,1772.4947)" />
    <linearGradient
       inkscape:collect="always"
       xlink:href="#linearGradient4553"
       id="linearGradient4519"
       x1="21.50001"
       y1="1011.3622"
       x2="26.499981"
       y2="1011.3622"
       gradientUnits="userSpaceOnUse"
       gradientTransform="matrix(-0.70710678,-0.70710678,0.70710678,-0.70710678,-686.19132,1772.4947)" />
    <linearGradient
       inkscape:collect="always"
       xlink:href="#linearGradient4553"
       id="linearGradient4521"
       x1="21.500019"
       y1="1045.3622"
       x2="26.49999"
       y2="1045.3622"
       gradientUnits="userSpaceOnUse"
       gradientTransform="matrix(-0.70710678,-0.70710678,0.70710678,-0.70710678,-686.19132,1772.4947)" />
    <linearGradient
       inkscape:collect="always"
       xlink:href="#linearGradient4553"
       id="linearGradient4523"
       x1="28.006664"
       y1="1012.6562"
       x2="33.004559"
       y2="1012.6562"
       gradientUnits="userSpaceOnUse"
       gradientTransform="matrix(-0.70710678,-0.70710678,0.70710678,-0.70710678,-686.19132,1772.4947)" />
    <linearGradient
       inkscape:collect="always"
       xlink:href="#linearGradient4553"
       id="linearGradient4525"
       x1="14.99544"
       y1="1044.0682"
       x2="19.993336"
       y2="1044.0682"
       gradientUnits="userSpaceOnUse"
       gradientTransform="matrix(-0.70710678,-0.70710678,0.70710678,-0.70710678,-686.19132,1772.4947)" />
    <linearGradient
       inkscape:collect="always"
       xlink:href="#linearGradient4553"
       id="linearGradient4527"
       x1="33.523956"
       y1="1016.3414"
       x2="38.517651"
       y2="1016.3414"
       gradientUnits="userSpaceOnUse"
       gradientTransform="matrix(-0.70710678,-0.70710678,0.70710678,-0.70710678,-686.19132,1772.4947)" />
    <linearGradient
       inkscape:collect="always"
       xlink:href="#linearGradient4553"
       id="linearGradient4529"
       x1="9.4823503"
       y1="1040.3831"
       x2="14.476044"
       y2="1040.3831"
       gradientUnits="userSpaceOnUse"
       gradientTransform="matrix(-0.70710678,-0.70710678,0.70710678,-0.70710678,-686.19132,1772.4947)" />
    <linearGradient
       inkscape:collect="always"
       xlink:href="#linearGradient4553"
       id="linearGradient4531"
       x1="37.207001"
       y1="1021.8566"
       x2="42.204906"
       y2="1021.8566"
       gradientUnits="userSpaceOnUse"
       gradientTransform="matrix(-0.70710678,-0.70710678,0.70710678,-0.70710678,-686.19132,1772.4947)" />
    <linearGradient
       inkscape:collect="always"
       xlink:href="#linearGradient4553"
       id="linearGradient4533"
       x1="5.795095"
       y1="1034.8678"
       x2="10.793001"
       y2="1034.8678"
       gradientUnits="userSpaceOnUse"
       gradientTransform="matrix(-0.70710678,-0.70710678,0.70710678,-0.70710678,-686.19132,1772.4947)" />
    <linearGradient
       inkscape:collect="always"
       xlink:href="#linearGradient4553"
       id="linearGradient4535"
       x1="38.5"
       y1="1028.3622"
       x2="43.5"
       y2="1028.3622"
       gradientUnits="userSpaceOnUse"
       gradientTransform="matrix(-0.70710678,-0.70710678,0.70710678,-0.70710678,-686.19132,1772.4947)" />
    <linearGradient
       inkscape:collect="always"
       xlink:href="#linearGradient4553"
       id="linearGradient4537"
       x1="4.5"
       y1="1028.3622"
       x2="9.5"
       y2="1028.3622"
       gradientUnits="userSpaceOnUse"
       gradientTransform="matrix(-0.70710678,-0.70710678,0.70710678,-0.70710678,-686.19132,1772.4947)" />
    <linearGradient
       inkscape:collect="always"
       xlink:href="#linearGradient4553"
       id="linearGradient4545"
       x1="1.5031965"
       y1="1028.3622"
       x2="46.496803"
       y2="1028.3622"
       gradientUnits="userSpaceOnUse"
       gradientTransform="matrix(0.70710678,0.70710678,-0.70710678,0.70710678,734.19132,284.22975)" />
    <radialGradient
       inkscape:collect="always"
       xlink:href="#linearGradient4274"
       id="radialGradient4280"
       cx="-744.13245"
       cy="-710.19135"
       fx="-744.13245"
       fy="-710.19135"
       r="12.5"
       gradientUnits="userSpaceOnUse" />
  </defs>
  <sodipodi:namedview
     id="base"
     pagecolor="#ffffff"
     bordercolor="#666666"
     borderopacity="1.0"
     inkscape:pageopacity="0.0"
     inkscape:pageshadow="2"
     inkscape:zoom="13.958333"
     inkscape:cx="11.140298"
     inkscape:cy="24"
     inkscape:document-units="px"
     inkscape:current-layer="g4559"
     showgrid="true"
     units="px"
     objecttolerance="10000"
     guidetolerance="10000"
     inkscape:window-width="1429"
     inkscape:window-height="822"
     inkscape:window-x="212"
     inkscape:window-y="189"
     inkscape:window-maximized="0"
     inkscape:snap-bbox="true"
     inkscape:bbox-paths="true"
     inkscape:bbox-nodes="true"
     inkscape:snap-bbox-edge-midpoints="true"
     inkscape:snap-bbox-midpoints="true"
     inkscape:object-paths="true"
     inkscape:snap-intersection-paths="true"
     inkscape:object-nodes="true"
     inkscape:snap-smooth-nodes="true"
     inkscape:snap-midpoints="true">
    <inkscape:grid
       type="xygrid"
       id="grid4136"
       empspacing="8" />
  </sodipodi:namedview>
  <metadata
     id="metadata7">
    <rdf:RDF>
      <cc:Work
         rdf:about="">
        <dc:format>image/svg+xml</dc:format>
        <dc:type
           rdf:resource="http://purl.org/dc/dcmitype/StillImage" />
        <dc:title />
      </cc:Work>
    </rdf:RDF>
  </metadata>
  <g
     inkscape:label="Layer 1"
     inkscape:groupmode="layer"
     id="layer1"
     transform="translate(0,-1004.3622)">
    <g
       id="g4559">
      <path
         inkscape:connector-curvature="0"
         id="path4155"
         d="m 45.999965,1028.3622 a 22,22 0 0 1 -21.99993,22 22,22 0 0 1 -22.0000003,-22 22,22 0 0 1 21.9999303,-22 22,22 0 0 1 22,22 z"
         style="fill:#ffdf00;fill-opacity:1;stroke:url(#linearGradient4545);stroke-width:1;stroke-linecap:round;stroke-linejoin:miter;stroke-miterlimit:4;stroke-dasharray:none;stroke-dashoffset:0;stroke-opacity:1" />
      <path
         inkscape:connector-curvature="0"
         id="path4138"
         d="m 34.6066,1038.9688 a 2,2 0 0 1 2.8284,0 2,2 0 0 1 0,2.8284 2,2 0 0 1 -2.8284,0 2,2 0 0 1 0,-2.8284 z"
         style="fill:#ffdf00;fill-opacity:1;stroke:url(#linearGradient4537);stroke-width:1;stroke-linecap:round;stroke-linejoin:miter;stroke-miterlimit:4;stroke-dasharray:none;stroke-dashoffset:0;stroke-opacity:1" />
      <path
         inkscape:connector-curvature="0"
         id="path4138-2"
         d="m 10.565,1014.9272 a 2,2 0 0 1 2.8284,0 2,2 0 0 1 0,2.8284 2,2 0 0 1 -2.8284,0 2,2 0 0 1 0,-2.8284 z"
         style="fill:#ffdf00;fill-opacity:1;stroke:url(#linearGradient4535);stroke-width:1;stroke-linecap:round;stroke-linejoin:miter;stroke-miterlimit:4;stroke-dasharray:none;stroke-dashoffset:0;stroke-opacity:1" />
      <path
         inkscape:connector-curvature="0"
         id="path4138-9"
         d="m 37.8582,1034.1024 a 2,2 0 0 1 2.6131,-1.0824 2,2 0 0 1 1.0824,2.6132 2,2 0 0 1 -2.6131,1.0823 2,2 0 0 1 -1.0824,-2.6131 z"
         style="fill:#ffdf00;fill-opacity:1;stroke:url(#linearGradient4533);stroke-width:1;stroke-linecap:round;stroke-linejoin:miter;stroke-miterlimit:4;stroke-dasharray:none;stroke-dashoffset:0;stroke-opacity:1" />
      <path
         inkscape:connector-curvature="0"
         id="path4138-2-9"
         d="m 6.4463002,1021.0912 a 2,2 0 0 1 2.6131,-1.0823 2,2 0 0 1 1.0823998,2.6131 2,2 0 0 1 -2.6130998,1.0824 2,2 0 0 1 -1.0824,-2.6132 z"
         style="fill:#ffdf00;fill-opacity:1;stroke:url(#linearGradient4531);stroke-width:1;stroke-linecap:round;stroke-linejoin:miter;stroke-miterlimit:4;stroke-dasharray:none;stroke-dashoffset:0;stroke-opacity:1" />
      <path
         inkscape:connector-curvature="0"
         id="path4138-9-1"
         d="m 39,1028.3622 a 2,2 0 0 1 2,-2 2,2 0 0 1 2,2 2,2 0 0 1 -2,2 2,2 0 0 1 -2,-2 z"
         style="fill:#ffdf00;fill-opacity:1;stroke:url(#linearGradient4529);stroke-width:1;stroke-linecap:round;stroke-linejoin:miter;stroke-miterlimit:4;stroke-dasharray:none;stroke-dashoffset:0;stroke-opacity:1" />
      <path
         inkscape:connector-curvature="0"
         id="path4138-2-9-0"
         d="m 5.0000002,1028.3622 a 2,2 0 0 1 2,-2 2,2 0 0 1 2,2 2,2 0 0 1 -2,2 2,2 0 0 1 -2,-2 z"
         style="fill:#ffdf00;fill-opacity:1;stroke:url(#linearGradient4527);stroke-width:1;stroke-linecap:round;stroke-linejoin:miter;stroke-miterlimit:4;stroke-dasharray:none;stroke-dashoffset:0;stroke-opacity:1" />
      <path
         inkscape:connector-curvature="0"
         id="path4138-9-1-1"
         d="m 37.8582,1022.6219 a 2,2 0 0 1 1.0824,-2.6131 2,2 0 0 1 2.6131,1.0824 2,2 0 0 1 -1.0824,2.6131 2,2 0 0 1 -2.6131,-1.0824 z"
         style="fill:#ffdf00;fill-opacity:1;stroke:url(#linearGradient4525);stroke-width:1;stroke-linecap:round;stroke-linejoin:miter;stroke-miterlimit:4;stroke-dasharray:none;stroke-dashoffset:0;stroke-opacity:1" />
      <path
         inkscape:connector-curvature="0"
         id="path4138-2-9-0-1"
         d="m 6.4463002,1035.6332 a 2,2 0 0 1 1.0824,-2.6131 2,2 0 0 1 2.6130998,1.0824 2,2 0 0 1 -1.0823998,2.6131 2,2 0 0 1 -2.6131,-1.0824 z"
         style="fill:#ffdf00;fill-opacity:1;stroke:url(#linearGradient4523);stroke-width:1;stroke-linecap:round;stroke-linejoin:miter;stroke-miterlimit:4;stroke-dasharray:none;stroke-dashoffset:0;stroke-opacity:1" />
      <path
         inkscape:connector-curvature="0"
         id="path4138-9-1-6"
         d="m 34.6066,1017.7556 a 2,2 0 0 1 0,-2.8284 2,2 0 0 1 2.8284,0 2,2 0 0 1 0,2.8284 2,2 0 0 1 -2.8284,0 z"
         style="fill:#ffdf00;fill-opacity:1;stroke:url(#linearGradient4521);stroke-width:1;stroke-linecap:round;stroke-linejoin:miter;stroke-miterlimit:4;stroke-dasharray:none;stroke-dashoffset:0;stroke-opacity:1" />
      <path
         inkscape:connector-curvature="0"
         id="path4138-2-9-0-9"
         d="m 10.565,1041.7972 a 2,2 0 0 1 0,-2.8284 2,2 0 0 1 2.8284,0 2,2 0 0 1 0,2.8284 2,2 0 0 1 -2.8284,0 z"
         style="fill:#ffdf00;fill-opacity:1;stroke:url(#linearGradient4519);stroke-width:1;stroke-linecap:round;stroke-linejoin:miter;stroke-miterlimit:4;stroke-dasharray:none;stroke-dashoffset:0;stroke-opacity:1" />
      <path
         inkscape:connector-curvature="0"
         id="path4138-9-1-6-1"
         d="m 29.7402,1014.504 a 2,2 0 0 1 -1.0823,-2.6131 2,2 0 0 1 2.6131,-1.0824 2,2 0 0 1 1.0824,2.6131 2,2 0 0 1 -2.6132,1.0824 z"
         style="fill:#ffdf00;fill-opacity:1;stroke:url(#linearGradient4517);stroke-width:1;stroke-linecap:round;stroke-linejoin:miter;stroke-miterlimit:4;stroke-dasharray:none;stroke-dashoffset:0;stroke-opacity:1" />
      <path
         inkscape:connector-curvature="0"
         id="path4138-2-9-0-9-1"
         d="m 16.729,1045.9159 a 2,2 0 0 1 -1.0824,-2.6131 2,2 0 0 1 2.6132,-1.0824 2,2 0 0 1 1.0823,2.6131 2,2 0 0 1 -2.6131,1.0824 z"
         style="fill:#ffdf00;fill-opacity:1;stroke:url(#linearGradient4515);stroke-width:1;stroke-linecap:round;stroke-linejoin:miter;stroke-miterlimit:4;stroke-dasharray:none;stroke-dashoffset:0;stroke-opacity:1" />
      <path
         inkscape:connector-curvature="0"
         id="path4138-9-1-6-1-5"
         d="m 24,1013.3622 a 2,2 0 0 1 -2,-2 2,2 0 0 1 2,-2 2,2 0 0 1 2,2 2,2 0 0 1 -2,2 z"
         style="fill:#ffdf00;fill-opacity:1;stroke:url(#linearGradient4513);stroke-width:1;stroke-linecap:round;stroke-linejoin:miter;stroke-miterlimit:4;stroke-dasharray:none;stroke-dashoffset:0;stroke-opacity:1" />
      <path
         inkscape:connector-curvature="0"
         id="path4138-2-9-0-9-1-9"
         d="m 24,1047.3622 a 2,2 0 0 1 -2,-2 2,2 0 0 1 2,-2 2,2 0 0 1 2,2 2,2 0 0 1 -2,2 z"
         style="fill:#ffdf00;fill-opacity:1;stroke:url(#linearGradient4511);stroke-width:1;stroke-linecap:round;stroke-linejoin:miter;stroke-miterlimit:4;stroke-dasharray:none;stroke-dashoffset:0;stroke-opacity:1" />
      <path
         inkscape:connector-curvature="0"
         id="path4138-9-1-6-1-5-8"
         d="m 18.2597,1014.504 a 2,2 0 0 1 -2.613,-1.0824 2,2 0 0 1 1.0823,-2.6131 2,2 0 0 1 2.6131,1.0824 2,2 0 0 1 -1.0824,2.6131 z"
         style="fill:#ffdf00;fill-opacity:1;stroke:url(#linearGradient4509);stroke-width:1;stroke-linecap:round;stroke-linejoin:miter;stroke-miterlimit:4;stroke-dasharray:none;stroke-dashoffset:0;stroke-opacity:1" />
      <path
         inkscape:connector-curvature="0"
         id="path4138-2-9-0-9-1-9-7"
         d="m 31.271,1045.9159 a 2,2 0 0 1 -2.6131,-1.0824 2,2 0 0 1 1.0824,-2.6131 2,2 0 0 1 2.613,1.0824 2,2 0 0 1 -1.0823,2.6131 z"
         style="fill:#ffdf00;fill-opacity:1;stroke:url(#linearGradient4507);stroke-width:1;stroke-linecap:round;stroke-linejoin:miter;stroke-miterlimit:4;stroke-dasharray:none;stroke-dashoffset:0;stroke-opacity:1" />
      <circle
         transform="matrix(-0.70710678,-0.70710678,0.70710678,-0.70710678,0,0)"
         r="12"
         cy="-710.19135"
         cx="-744.13245"
         id="path4497"
         style="fill:url(#radialGradient4280);fill-opacity:1;stroke:url(#linearGradient4505);stroke-width:1;stroke-linecap:round;stroke-linejoin:miter;stroke-miterlimit:4;stroke-dasharray:none;stroke-dashoffset:0;stroke-opacity:1" />
    </g>
  </g>
</svg>
